<mxfile host="app.diagrams.net" modified="2023-10-22T20:01:49.339Z" agent="Mozilla/5.0 (Windows NT 10.0; Win64; x64) AppleWebKit/537.36 (KHTML, like Gecko) Chrome/118.0.0.0 Safari/537.36" etag="B0pjeMCVZoc5lxMX4cDn" version="22.0.6" type="device">
  <diagram name="Page-1" id="YH24OoSbjbsCGeAZQhb1">
    <mxGraphModel dx="947" dy="962" grid="1" gridSize="10" guides="1" tooltips="1" connect="1" arrows="1" fold="1" page="1" pageScale="1" pageWidth="1169" pageHeight="827" math="0" shadow="0">
      <root>
        <mxCell id="0" />
        <mxCell id="1" parent="0" />
        <mxCell id="RDhezFCqtS6FlpWFl2DR-32" value="" style="rounded=0;whiteSpace=wrap;html=1;" vertex="1" parent="1">
          <mxGeometry y="120" width="1160" height="540" as="geometry" />
        </mxCell>
        <mxCell id="RDhezFCqtS6FlpWFl2DR-7" value="" style="rounded=0;whiteSpace=wrap;html=1;" vertex="1" parent="1">
          <mxGeometry x="400" y="160" width="370" height="480" as="geometry" />
        </mxCell>
        <mxCell id="RDhezFCqtS6FlpWFl2DR-30" value="" style="rounded=0;whiteSpace=wrap;html=1;" vertex="1" parent="1">
          <mxGeometry x="630" y="310" width="140" height="170" as="geometry" />
        </mxCell>
        <mxCell id="RDhezFCqtS6FlpWFl2DR-29" value="" style="rounded=0;whiteSpace=wrap;html=1;" vertex="1" parent="1">
          <mxGeometry x="410" y="310" width="120" height="170" as="geometry" />
        </mxCell>
        <mxCell id="RDhezFCqtS6FlpWFl2DR-1" value="HEADER/TITLE" style="rounded=0;whiteSpace=wrap;html=1;" vertex="1" parent="1">
          <mxGeometry width="1160" height="120" as="geometry" />
        </mxCell>
        <mxCell id="RDhezFCqtS6FlpWFl2DR-3" value="" style="rounded=1;whiteSpace=wrap;html=1;" vertex="1" parent="1">
          <mxGeometry x="30" y="120" width="330" height="80" as="geometry" />
        </mxCell>
        <mxCell id="RDhezFCqtS6FlpWFl2DR-4" value="" style="rounded=1;whiteSpace=wrap;html=1;" vertex="1" parent="1">
          <mxGeometry y="200" width="390" height="440" as="geometry" />
        </mxCell>
        <mxCell id="RDhezFCqtS6FlpWFl2DR-5" value="" style="rounded=1;whiteSpace=wrap;html=1;" vertex="1" parent="1">
          <mxGeometry x="809" y="120" width="330" height="80" as="geometry" />
        </mxCell>
        <mxCell id="RDhezFCqtS6FlpWFl2DR-6" value="" style="rounded=1;whiteSpace=wrap;html=1;" vertex="1" parent="1">
          <mxGeometry x="779" y="200" width="390" height="440" as="geometry" />
        </mxCell>
        <mxCell id="RDhezFCqtS6FlpWFl2DR-8" value="" style="ellipse;whiteSpace=wrap;html=1;aspect=fixed;" vertex="1" parent="1">
          <mxGeometry x="30" y="240" width="80" height="80" as="geometry" />
        </mxCell>
        <mxCell id="RDhezFCqtS6FlpWFl2DR-9" value="" style="ellipse;whiteSpace=wrap;html=1;aspect=fixed;" vertex="1" parent="1">
          <mxGeometry x="30" y="374" width="80" height="80" as="geometry" />
        </mxCell>
        <mxCell id="RDhezFCqtS6FlpWFl2DR-10" value="" style="ellipse;whiteSpace=wrap;html=1;aspect=fixed;" vertex="1" parent="1">
          <mxGeometry x="30" y="500" width="80" height="80" as="geometry" />
        </mxCell>
        <mxCell id="RDhezFCqtS6FlpWFl2DR-11" value="" style="ellipse;whiteSpace=wrap;html=1;aspect=fixed;" vertex="1" parent="1">
          <mxGeometry x="1059" y="230" width="80" height="80" as="geometry" />
        </mxCell>
        <mxCell id="RDhezFCqtS6FlpWFl2DR-12" value="" style="ellipse;whiteSpace=wrap;html=1;aspect=fixed;" vertex="1" parent="1">
          <mxGeometry x="1059" y="364" width="80" height="80" as="geometry" />
        </mxCell>
        <mxCell id="RDhezFCqtS6FlpWFl2DR-13" value="" style="ellipse;whiteSpace=wrap;html=1;aspect=fixed;" vertex="1" parent="1">
          <mxGeometry x="1059" y="490" width="80" height="80" as="geometry" />
        </mxCell>
        <mxCell id="RDhezFCqtS6FlpWFl2DR-21" value="" style="rounded=0;whiteSpace=wrap;html=1;align=center;" vertex="1" parent="1">
          <mxGeometry x="400" y="160" width="370" height="120" as="geometry" />
        </mxCell>
        <mxCell id="RDhezFCqtS6FlpWFl2DR-23" value="Round" style="rounded=1;whiteSpace=wrap;html=1;" vertex="1" parent="1">
          <mxGeometry x="530" y="160" width="120" height="60" as="geometry" />
        </mxCell>
        <mxCell id="RDhezFCqtS6FlpWFl2DR-24" value="R/5" style="rounded=1;whiteSpace=wrap;html=1;" vertex="1" parent="1">
          <mxGeometry x="530" y="220" width="120" height="60" as="geometry" />
        </mxCell>
        <mxCell id="RDhezFCqtS6FlpWFl2DR-25" value="PlayerScore" style="rounded=0;whiteSpace=wrap;html=1;" vertex="1" parent="1">
          <mxGeometry x="410" y="330" width="120" height="60" as="geometry" />
        </mxCell>
        <mxCell id="RDhezFCqtS6FlpWFl2DR-26" value="PlayerScore" style="rounded=0;whiteSpace=wrap;html=1;" vertex="1" parent="1">
          <mxGeometry x="640" y="330" width="120" height="60" as="geometry" />
        </mxCell>
        <mxCell id="RDhezFCqtS6FlpWFl2DR-27" value="PlayerScore" style="rounded=0;whiteSpace=wrap;html=1;" vertex="1" parent="1">
          <mxGeometry x="430" y="400" width="80" height="60" as="geometry" />
        </mxCell>
        <mxCell id="RDhezFCqtS6FlpWFl2DR-28" value="PlayerScore" style="rounded=0;whiteSpace=wrap;html=1;" vertex="1" parent="1">
          <mxGeometry x="660" y="400" width="80" height="60" as="geometry" />
        </mxCell>
        <mxCell id="RDhezFCqtS6FlpWFl2DR-31" value="Comments" style="rounded=1;whiteSpace=wrap;html=1;" vertex="1" parent="1">
          <mxGeometry x="400" y="520" width="370" height="120" as="geometry" />
        </mxCell>
        <mxCell id="RDhezFCqtS6FlpWFl2DR-33" value="Footer" style="rounded=0;whiteSpace=wrap;html=1;" vertex="1" parent="1">
          <mxGeometry y="660" width="1160" height="90" as="geometry" />
        </mxCell>
      </root>
    </mxGraphModel>
  </diagram>
</mxfile>
